<?xml version="1.0" encoding="utf-8"?>
<svg version="1.0" width="200pt" height="42.744pt" viewBox="0 0 200 42.744" preserveAspectRatio="xMidYMid meet" xmlns="http://www.w3.org/2000/svg">
  <g transform="matrix(0.098717, 0, 0, 0.098717, 0, 0)">
    <rect x="1511.352" y="2.79" width="487.381" height="420.038" style="fill: rgb(216, 216, 216); stroke: rgb(0, 0, 0);"/>
    <rect x="26.823" y="27.901" width="1529.487" height="369.816" style="fill: rgb(216, 216, 216); stroke: rgb(0, 0, 0); paint-order: fill;"/>
    <g transform="matrix(0.1, 0, 0, -0.1, 0, 433)" fill="#000000" stroke="none">
      <path d="M0 2165 l0 -2165 10130 0 10130 0 0 2165 0 2165 -10130 0 -10130 0 0 -2165z m17798 2019 c168 -34 327 -121 404 -219 39 -50 49 -56 132 -85 141 -50 269 -117 335 -177 33 -29 62 -62 66 -72 4 -13 42 -31 123 -61 206 -74 578 -247 646 -301 54 -42 23 -38 -75 12 -518 259 -1336 455 -2174 521 -214 16 -768 16 -935 0 -228 -23 -593 -83 -654 -108 -34 -13 -12 20 25 38 73 36 705 138 854 138 56 0 62 2 87 34 50 63 192 113 383 136 76 9 106 17 130 35 67 52 220 108 350 129 51 8 223 -3 303 -20z m-778 -424 c643 -25 1273 -136 1845 -325 248 -82 624 -245 625 -271 0 -15 -117 -24 -309 -24 -148 0 -158 -2 -200 -25 -86 -49 -237 -77 -499 -90 -70 -4 -134 -13 -150 -20 -85 -43 -293 -70 -474 -63 -71 3 -128 2 -128 -2 0 -5 205 -595 456 -1312 250 -716 456 -1307 457 -1313 1 -7 -359 -11 -1060 -13 -699 -1 -1063 1 -1063 8 0 5 180 526 401 1157 221 632 430 1230 465 1330 35 100 60 184 56 186 -4 3 -29 8 -57 11 -207 30 -484 127 -585 206 -21 16 -80 41 -143 60 -217 65 -358 130 -445 204 -42 36 -62 46 -119 56 -73 13 -362 105 -376 119 -12 12 2 16 193 50 206 37 409 61 610 70 229 11 234 11 500 1z m-16119 -780 c16 -63 35 -142 43 -175 7 -33 28 -112 45 -175 16 -63 37 -142 46 -175 8 -33 22 -85 30 -115 28 -105 68 -265 82 -330 8 -36 20 -71 28 -79 13 -13 16 -10 30 22 8 20 15 47 15 61 0 14 5 37 11 53 6 15 17 55 25 88 20 92 40 172 63 255 11 41 56 212 99 380 l78 305 59 3 c32 2 68 1 80 -2 20 -5 20 -6 18 -938 -2 -513 -3 -937 -3 -941 0 -4 -35 -7 -77 -5 l-78 3 -2 593 c0 326 -4 600 -7 608 -9 22 -26 7 -26 -23 0 -13 -9 -57 -21 -96 -11 -40 -27 -97 -35 -127 -20 -75 -36 -135 -74 -270 -18 -63 -38 -140 -45 -170 -7 -30 -23 -91 -35 -135 -12 -44 -24 -91 -27 -105 -13 -71 -13 -71 -41 -68 -23 3 -28 9 -33 43 -3 22 -16 76 -29 120 -12 44 -27 98 -33 120 -12 51 -34 132 -58 215 -10 36 -34 126 -54 200 -19 74 -42 158 -49 185 -8 28 -17 67 -21 88 -7 42 -20 48 -29 15 -3 -13 -6 -288 -6 -611 l0 -588 -82 3 -83 3 -3 934 c-2 741 0 936 10 943 7 4 46 7 87 6 l74 -3 28 -115z m3561 115 c11 -4 12 -74 10 -375 l-3 -369 26 -7 c14 -4 43 -3 63 1 20 5 66 9 102 11 36 1 78 7 93 13 44 17 128 13 167 -7 70 -37 70 -38 70 -499 0 -249 -4 -431 -10 -460 -16 -70 -69 -137 -133 -168 -53 -25 -58 -25 -290 -25 -131 0 -237 3 -237 8 -6 783 -3 1873 5 1876 15 6 121 7 137 1z m4480 -31 c18 -20 36 -43 40 -52 4 -10 7 -123 7 -253 1 -207 -1 -238 -15 -243 -30 -12 -131 -6 -143 8 -8 9 -11 78 -9 215 1 121 -3 206 -9 212 -6 6 -88 8 -209 7 l-199 -3 -3 -803 -2 -802 212 2 212 3 -3 212 -3 212 24 6 c13 3 51 5 83 3 l60 -3 3 -225 c3 -249 -2 -285 -49 -324 l-31 -26 -296 0 c-292 1 -297 1 -323 23 -56 47 -54 7 -57 887 -2 577 0 830 8 867 8 39 20 60 46 82 l35 31 294 0 295 0 32 -36z m3771 -217 c15 -10 17 -27 15 -117 l-3 -105 -80 0 -80 0 -3 104 c-2 67 1 108 9 117 15 18 119 19 142 1z m-8805 -284 l2 -183 94 0 c63 0 97 -4 104 -12 5 -7 9 -38 8 -68 l-1 -55 -100 -5 -100 -5 -3 -442 -2 -443 86 0 c114 0 122 -5 120 -77 l-1 -58 -138 -3 c-134 -2 -139 -2 -171 23 -55 42 -57 59 -56 546 1 354 -1 444 -12 450 -7 5 -36 9 -65 9 -28 0 -55 5 -59 12 -9 14 -9 107 0 116 4 3 36 8 71 10 39 3 65 9 65 16 1 6 0 85 0 176 0 91 3 169 7 173 4 4 39 6 78 5 l70 -3 3 -182z m8244 5 l3 -183 80 -3 c129 -4 126 -2 123 -75 l-3 -62 -100 -5 -100 -5 0 -440 0 -440 80 -3 c129 -4 126 -2 123 -75 l-3 -62 -136 -3 c-124 -2 -137 -1 -159 18 -13 11 -26 20 -31 20 -25 0 -30 82 -29 516 0 361 -2 453 -13 462 -7 6 -40 12 -72 14 l-60 3 -3 54 c-2 30 2 59 8 65 6 6 39 13 73 16 l62 5 2 175 c1 96 2 178 2 183 1 4 35 7 76 7 l75 0 2 -182z m-10126 -196 c6 -4 14 -23 17 -42 3 -19 18 -87 32 -150 14 -63 32 -146 40 -185 8 -38 19 -88 24 -110 10 -42 28 -126 56 -260 23 -108 30 -130 41 -128 10 2 13 14 39 138 9 44 21 98 27 120 5 22 13 60 18 85 4 25 14 72 22 105 9 33 23 96 33 140 9 44 23 105 30 135 7 30 17 74 20 98 8 50 28 62 104 62 67 0 74 -12 50 -84 -10 -33 -19 -67 -19 -76 0 -9 -22 -104 -49 -211 -27 -107 -59 -239 -71 -294 -12 -55 -28 -124 -36 -152 -33 -125 -43 -163 -64 -258 -12 -55 -26 -113 -31 -130 -6 -16 -21 -75 -35 -130 -30 -120 -53 -208 -66 -253 l-10 -32 -73 0 c-42 0 -77 5 -80 11 -4 6 1 31 10 55 9 25 23 71 30 102 23 97 43 175 54 212 19 60 13 100 -55 366 -36 142 -72 284 -79 314 -7 30 -23 93 -35 140 -12 47 -26 101 -30 120 -4 19 -22 91 -40 159 -26 101 -30 125 -19 132 17 11 130 12 145 1z m1320 -12 c74 -36 79 -46 82 -187 3 -97 1 -128 -10 -134 -17 -11 -119 -11 -136 0 -10 6 -13 31 -11 95 3 68 0 89 -11 96 -23 15 -293 13 -308 -2 -7 -7 -12 -45 -12 -99 l0 -87 53 -43 c28 -24 54 -47 57 -50 3 -4 59 -48 125 -100 180 -139 222 -176 239 -213 12 -26 16 -67 16 -179 0 -80 -4 -157 -9 -171 -6 -13 -27 -36 -48 -50 l-38 -26 -224 0 c-211 0 -226 1 -258 22 -52 32 -63 68 -63 212 0 143 0 143 83 140 79 -3 77 0 77 -124 l0 -110 160 0 c100 0 160 4 160 10 1 6 1 53 1 105 0 52 0 99 -1 105 0 5 -24 29 -53 52 -57 46 -256 208 -346 282 -30 24 -59 53 -65 63 -15 27 -20 260 -7 310 12 43 55 86 96 96 11 2 107 5 214 6 176 1 199 -1 237 -19z m2557 -13 c23 -17 40 -41 47 -65 13 -49 14 -934 0 -983 -6 -23 -24 -47 -45 -63 l-34 -26 -258 0 -259 0 -31 32 c-18 18 -37 46 -42 61 -7 19 -11 188 -11 490 1 516 0 511 70 562 l35 26 246 -3 246 -3 36 -28z m461 12 c29 -23 71 -23 181 1 148 32 217 19 263 -49 21 -33 22 -42 20 -190 l-3 -156 -69 -3 c-40 -2 -74 2 -80 8 -6 6 -9 54 -7 128 2 100 0 120 -14 132 -13 11 -23 11 -49 2 -18 -7 -50 -12 -72 -13 -21 0 -66 -6 -99 -13 l-60 -13 -5 -489 -5 -489 -75 0 -75 0 -3 569 c-1 412 1 573 9 582 19 23 111 18 143 -7z m832 -3 c11 -16 22 -17 86 -12 40 4 91 8 113 9 22 1 51 8 64 16 15 9 48 12 96 9 60 -3 78 -8 108 -31 24 -18 38 -38 42 -60 3 -17 4 -266 3 -552 l-3 -520 -75 0 -75 0 -5 510 c-5 489 -6 510 -24 513 -10 2 -28 -1 -40 -7 -20 -9 -45 -13 -203 -27 -34 -3 -67 -12 -73 -19 -8 -10 -12 -157 -13 -492 l-2 -478 -78 0 -78 0 0 574 c0 458 3 576 13 583 23 16 129 4 144 -16z m2208 3 c29 -23 71 -23 181 1 109 24 161 24 208 1 69 -33 78 -64 75 -246 l-3 -150 -69 -3 c-38 -2 -74 2 -79 7 -6 6 -10 59 -8 128 1 65 -3 124 -8 132 -6 9 -18 12 -37 7 -16 -4 -60 -12 -99 -17 -38 -5 -88 -13 -110 -17 l-40 -7 -5 -490 -5 -490 -75 0 -75 0 -3 574 c-2 453 0 576 10 583 27 17 114 9 142 -13z m1250 7 c18 -7 44 -29 57 -47 23 -33 24 -39 27 -268 l3 -234 -27 -28 -28 -29 -215 0 c-119 0 -222 -4 -229 -9 -11 -6 -14 -51 -14 -202 l0 -194 176 -3 c137 -2 176 0 177 10 0 7 0 50 -1 95 -1 79 0 83 22 88 13 4 49 5 79 3 l54 -3 3 -110 c3 -129 -11 -173 -65 -205 -32 -19 -52 -20 -277 -20 l-243 0 -36 35 c-29 28 -37 44 -37 73 -1 20 -1 228 0 462 0 234 0 446 0 472 0 50 32 101 74 118 12 5 121 9 244 9 168 1 231 -2 256 -13z m954 -14 c63 -46 61 -28 62 -599 0 -285 0 -524 0 -530 0 -20 -134 -17 -150 2 -11 13 -30 15 -114 9 -56 -4 -105 -10 -110 -15 -6 -5 -57 -9 -115 -9 -102 1 -107 2 -141 30 l-35 29 -3 247 c-4 282 2 312 63 352 33 21 45 22 226 22 112 0 198 4 210 10 17 10 19 23 19 163 0 106 -4 157 -12 165 -17 17 -324 17 -334 0 -4 -7 -8 -44 -8 -83 l-1 -70 -77 -3 -78 -3 0 98 c0 120 16 157 81 191 42 22 52 22 264 20 212 -3 221 -4 253 -26z m1096 18 l26 -10 -2 -572 -3 -573 -77 -3 c-59 -2 -78 0 -78 10 0 7 0 267 0 577 0 447 2 566 12 573 18 11 91 10 122 -2z m928 -23 c58 -44 60 -68 56 -587 -3 -498 -3 -493 -63 -530 -30 -19 -51 -20 -286 -20 l-255 0 -32 29 c-18 17 -37 42 -42 56 -6 16 -10 209 -10 496 0 523 -1 517 67 563 l38 27 245 -3 245 -3 37 -28z m459 12 c20 -20 28 -21 98 -14 42 3 91 7 110 6 18 0 44 7 57 16 18 11 43 14 97 11 62 -3 80 -8 110 -31 24 -18 38 -38 42 -60 3 -17 4 -266 3 -552 l-3 -520 -75 0 -75 0 -5 510 c-5 489 -6 510 -24 513 -10 2 -28 -1 -40 -7 -11 -5 -46 -12 -76 -15 -156 -14 -190 -19 -200 -31 -7 -9 -12 -169 -13 -492 l-2 -478 -80 0 -80 0 -3 570 c-3 647 -10 595 85 595 41 0 58 -5 74 -21z m1329 15 c18 -4 50 -24 71 -44 l40 -37 -3 -129 -3 -129 -64 -3 c-36 -2 -69 2 -75 8 -6 6 -9 43 -7 91 2 52 -1 85 -9 94 -18 21 -305 22 -317 1 -4 -8 -7 -55 -5 -105 l3 -90 142 -113 c77 -62 178 -142 223 -178 117 -92 116 -89 115 -282 -1 -178 -5 -193 -64 -228 -29 -18 -52 -20 -258 -20 l-226 0 -44 39 -44 39 0 143 0 144 65 6 c36 3 71 3 78 1 9 -3 12 -36 12 -118 l0 -114 163 2 162 3 3 106 c3 125 12 111 -153 239 -160 124 -285 231 -309 263 -19 26 -21 42 -21 170 0 166 8 189 74 224 42 22 55 23 231 23 103 0 202 -3 220 -6z" style=""/>
      <path d="M17090 4002 c-35 -12 -41 -65 -9 -82 28 -15 72 12 67 42 -4 25 -37 48 -58 40z"/>
      <path d="M17645 3975 c-29 -28 -31 -42 -9 -73 18 -26 75 -30 94 -7 20 24 15 67 -10 87 -30 24 -46 23 -75 -7z"/>
      <path d="M16697 3926 c-9 -22 19 -42 37 -26 19 15 10 40 -14 40 -10 0 -20 -6 -23 -14z"/>
      <path d="M18172 3868 c-18 -18 -14 -53 9 -74 19 -17 23 -17 47 -3 30 16 40 52 22 75 -15 17 -61 19 -78 2z"/>
      <path d="M18511 3741 c-15 -27 11 -60 36 -45 23 14 29 44 11 55 -21 14 -37 10 -47 -10z"/>
      <path d="M17354 3120 c-47 -19 -39 -46 19 -73 18 -9 44 -19 60 -22 24 -6 29 -3 41 26 33 82 35 79 -36 78 -35 0 -73 -4 -84 -9z"/>
      <path d="M17675 3088 c30 -93 30 -93 66 -89 46 4 71 19 67 39 -3 15 -69 54 -116 67 -22 6 -23 5 -17 -17z"/>
      <path d="M17460 1683 c-63 -33 -113 -91 -113 -131 0 -37 61 -129 146 -218 37 -39 67 -78 67 -86 0 -8 -13 -24 -28 -35 -53 -39 -177 -304 -210 -449 -12 -50 -30 -113 -40 -140 -32 -81 -35 -91 -18 -64 l15 25 2 -30 c2 -27 2 -28 6 -5 8 50 25 90 37 90 7 0 17 -12 24 -27 11 -27 11 -27 7 -3 -2 14 -9 45 -15 68 -11 47 -9 60 34 174 27 72 85 191 109 222 13 17 15 14 26 -40 16 -78 17 -104 3 -273 -12 -141 -8 -281 9 -311 5 -9 9 21 9 75 0 179 29 314 63 302 18 -5 44 -119 52 -226 5 -73 10 -90 17 -76 15 26 4 251 -17 358 -16 77 -16 96 -5 163 l13 75 44 -43 c63 -62 143 -187 143 -225 0 -17 -7 -49 -15 -72 -8 -22 -10 -41 -6 -41 5 0 12 11 15 25 4 14 12 25 20 25 16 0 36 -42 36 -75 0 -14 5 -25 11 -25 6 0 9 7 5 15 -3 8 -1 15 4 15 5 0 10 -6 13 -12 2 -7 3 -6 1 2 -1 8 -13 42 -27 75 -13 33 -36 92 -51 131 -18 49 -46 94 -94 151 -37 44 -80 97 -95 117 -15 20 -39 39 -52 42 -38 9 -31 38 24 108 78 97 151 208 151 227 0 30 -58 86 -122 119 -78 38 -128 39 -198 3z m17 -216 c25 -22 22 -37 -7 -37 -22 0 -60 37 -60 58 0 18 37 7 67 -21z m223 20 c0 -18 -38 -57 -55 -57 -37 0 -23 43 20 60 29 12 35 12 35 -3z"/>
      <path d="M4746 2233 c-4 -5 -47 -11 -94 -15 -48 -3 -107 -10 -132 -15 l-45 -8 0 -420 0 -420 144 -3 143 -3 34 36 34 36 0 404 c0 358 -2 404 -16 409 -22 8 -59 8 -68 -1z"/>
      <path d="M5445 2230 c-3 -5 -6 -204 -6 -442 l0 -433 164 -5 c91 -3 172 -4 181 -2 15 3 16 42 14 445 l-3 442 -172 3 c-106 1 -174 -1 -178 -8z"/>
      <path d="M10235 2230 c-4 -6 -7 -81 -7 -166 0 -122 2 -158 13 -165 18 -11 310 -12 327 -1 19 13 20 321 1 333 -20 13 -326 11 -334 -1z"/>
      <path d="M11161 1746 c-8 -9 -11 -72 -9 -202 l3 -189 130 3 c72 2 134 8 140 13 5 5 21 9 36 9 60 0 59 -3 59 186 0 161 -1 174 -19 184 -31 16 -326 13 -340 -4z"/>
      <path d="M13172 2232 c-10 -7 -12 -102 -10 -443 l3 -434 168 -5 c93 -3 175 -1 183 3 12 7 14 76 14 435 0 320 -3 431 -12 440 -14 14 -324 17 -346 4z"/>
    </g>
  </g>
</svg>